<svg xmlns="http://www.w3.org/2000/svg" viewBox="0 0 820 190" role="img" aria-labelledby="title desc">
  <title id="title">Enterprise Data Platform wordmark on dark</title>
  <desc id="desc">Enterprise Data Platform horizontal wordmark with data-flow mark.</desc>
  <defs>
    <linearGradient id="bg" x1="0" x2="820" y1="0" y2="190" gradientUnits="userSpaceOnUse">
      <stop offset="0" stop-color="#071525"/>
      <stop offset=".62" stop-color="#08111f"/>
      <stop offset="1" stop-color="#020814"/>
    </linearGradient>
    <linearGradient id="mark1" x1="64" x2="424" y1="82" y2="82" gradientUnits="userSpaceOnUse">
      <stop offset="0" stop-color="#0b57c7"/>
      <stop offset=".65" stop-color="#1479e6"/>
      <stop offset="1" stop-color="#28d7ec"/>
    </linearGradient>
    <linearGradient id="mark2" x1="64" x2="424" y1="122" y2="122" gradientUnits="userSpaceOnUse">
      <stop offset="0" stop-color="#174aa0"/>
      <stop offset=".65" stop-color="#2f7de1"/>
      <stop offset="1" stop-color="#43c7f4"/>
    </linearGradient>
    <linearGradient id="mark3" x1="64" x2="424" y1="162" y2="162" gradientUnits="userSpaceOnUse">
      <stop offset="0" stop-color="#486a99"/>
      <stop offset=".65" stop-color="#548bd0"/>
      <stop offset="1" stop-color="#8ab4f8"/>
    </linearGradient>
    <linearGradient id="mark4" x1="64" x2="424" y1="202" y2="202" gradientUnits="userSpaceOnUse">
      <stop offset="0" stop-color="#56606b"/>
      <stop offset=".65" stop-color="#8e9aa8"/>
      <stop offset="1" stop-color="#cad4df"/>
    </linearGradient>
    <linearGradient id="type" x1="458" x2="1080" y1="82" y2="116" gradientUnits="userSpaceOnUse">
      <stop offset="0" stop-color="#ffffff"/>
      <stop offset=".62" stop-color="#f8fbff"/>
      <stop offset="1" stop-color="#d6e0eb"/>
    </linearGradient>
  </defs>
  <rect width="820" height="190" rx="12" fill="url(#bg)"/>
  <g transform="translate(-35 -47)">
    <path d="M64 74h161c6.3 0 11.9 1.9 16.9 5.7l30.2 22.9c4.9 3.8 10.6 5.7 16.8 5.7h117v18H282.8c-8.3 0-15.8-2.5-22.5-7.6l-30.4-23a19.9 19.9 0 0 0-12-4H64Z" fill="url(#mark1)"/>
    <path d="M64 115h161c6.3 0 11.9 1.9 16.9 5.7l30.2 22.9c4.9 3.8 10.6 5.7 16.8 5.7h117v18H282.8c-8.3 0-15.8-2.5-22.5-7.6l-30.4-23a19.9 19.9 0 0 0-12-4H64Z" fill="url(#mark2)"/>
    <path d="M64 156h161c6.3 0 11.9 1.9 16.9 5.7l30.2 22.9c4.9 3.8 10.6 5.7 16.8 5.7h117v18H282.8c-8.3 0-15.8-2.5-22.5-7.6l-30.4-23a19.9 19.9 0 0 0-12-4H64Z" fill="url(#mark3)"/>
    <path d="M64 197h161c6.3 0 11.9-1.9 16.9-5.7l30.2-22.9c4.9-3.8 10.6-5.7 16.8-5.7h117v18H282.8c-4.1 0-7.8 1.3-11.2 3.8l-30.4 23c-6.7 5.1-14.2 7.6-22.5 7.6H64Z" fill="url(#mark4)"/>
    <g fill="#26cef3">
      <rect x="423" y="74" width="14" height="14" rx="2"/>
      <rect x="423" y="115" width="14" height="14" rx="2"/>
      <rect x="423" y="156" width="14" height="14" rx="2"/>
    </g>
    <rect x="423" y="197" width="14" height="14" rx="2" fill="#80aee9"/>
  </g>
  <g id="wordmark-outlines">
    <path d="M470.16 91.8 L470.16 48.83 L497.74 48.83 L497.74 55.49 L477.99 55.49 L477.99 66.1 L495.58 66.1 L495.58 72.58 L477.99 72.58 L477.99 85.18 L499.23 85.18 L499.23 91.8 Z M506.11 60.44 L508.64 59.85 L511.79 59.26 L515.43 58.86 L519.43 58.73 L523.08 58.99 L526.09 59.81 L528.48 61.11 L530.33 62.82 L531.67 64.98 L532.58 67.54 L533.02 70.42 L533.21 73.57 L533.21 91.8 L525.73 91.8 L525.73 74.75 L525.65 72.36 L525.38 70.33 L524.92 68.67 L524.25 67.36 L523.35 66.38 L522.14 65.7 L520.65 65.29 L518.9 65.16 L515.92 65.34 L514.58 65.52 L513.63 65.65 L513.63 91.8 L506.11 91.8 Z M542.02 50.85 L549.54 49.59 L549.54 59.4 L561.06 59.4 L561.06 65.65 L549.54 65.65 L549.54 78.84 L549.63 80.64 L549.85 82.21 L550.21 83.47 L550.76 84.42 L552.42 85.68 L554.98 86.13 L558.59 85.68 L560.02 85.23 L561.1 84.87 L562.36 90.81 L560.84 91.39 L558.95 91.98 L556.65 92.43 L553.99 92.57 L550.8 92.34 L548.19 91.62 L546.12 90.5 L544.5 88.92 L543.33 86.99 L542.57 84.64 L542.16 81.94 L542.02 78.93 Z M565.96 75.74 L566.28 71.73 L567.22 68.26 L568.71 65.29 L570.6 62.91 L572.85 61.02 L575.46 59.67 L578.21 58.86 L581.04 58.59 L584.19 58.86 L586.98 59.62 L589.41 60.93 L591.48 62.73 L593.1 65.07 L594.27 67.95 L594.99 71.28 L595.21 75.15 L595.21 76.54 L595.08 77.94 L573.71 77.94 L574.56 81.4 L576.45 83.97 L579.46 85.59 L581.35 86 L583.56 86.13 L588.55 85.64 L590.58 85.1 L592.11 84.56 L593.1 90.68 L591.43 91.35 L588.91 91.98 L585.95 92.43 L582.66 92.61 L578.65 92.29 L575.19 91.35 L572.31 89.82 L569.97 87.79 L568.21 85.36 L566.96 82.49 L566.19 79.25 L565.96 75.74 Z M587.74 72.4 L587.29 69.48 L586.03 67.05 L583.96 65.43 L582.66 64.98 L581.09 64.85 L579.46 65.03 L578.07 65.47 L575.86 67.18 L574.47 69.61 L573.79 72.4 Z M621.63 66.15 L620.51 65.83 L619.07 65.47 L615.24 65.16 L612.59 65.39 L611.41 65.61 L610.65 65.83 L610.65 91.8 L603.14 91.8 L603.14 60.93 L605.61 60.17 L608.58 59.4 L612 58.9 L615.78 58.73 L617.53 58.81 L619.52 59.04 L621.45 59.4 L622.93 59.81 Z M649.62 75.74 L649.48 73.39 L649.08 71.28 L648.36 69.48 L647.37 67.95 L646.07 66.74 L644.45 65.88 L642.42 65.34 L640.08 65.16 L637.88 65.25 L635.62 65.65 L635.62 84.19 L636.79 84.82 L638.28 85.46 L639.95 85.9 L641.74 86.04 L643.68 85.86 L645.3 85.32 L646.65 84.46 L647.73 83.25 L649.17 79.96 L649.62 75.74 Z M657.32 75.64 L657.09 79.2 L656.37 82.44 L655.2 85.32 L653.62 87.79 L651.6 89.78 L649.12 91.26 L646.24 92.16 L643.01 92.47 L638.78 91.93 L637.02 91.35 L635.62 90.68 L635.62 103.28 L628.11 103.28 L628.11 60.44 L630.67 59.85 L633.78 59.26 L640.84 58.73 L644.49 58.99 L647.73 59.9 L650.52 61.33 L652.9 63.27 L654.79 65.7 L656.19 68.58 L657.04 71.91 L657.32 75.64 Z M683.55 66.15 L682.47 65.83 L680.98 65.47 L679.23 65.25 L677.16 65.16 L674.55 65.39 L673.38 65.61 L672.57 65.83 L672.57 91.8 L665.1 91.8 L665.1 60.93 L667.53 60.17 L670.5 59.4 L673.96 58.9 L677.74 58.73 L679.46 58.81 L681.43 59.04 L683.37 59.4 L684.85 59.81 Z M697.64 91.8 L690.12 91.8 L690.12 59.4 L697.64 59.4 Z M698.45 49.9 L698.09 51.8 L697.05 53.24 L695.57 54.18 L693.85 54.49 L692.05 54.18 L690.57 53.24 L689.53 51.8 L689.17 49.9 L689.53 47.97 L690.57 46.49 L692.05 45.58 L693.85 45.27 L695.57 45.58 L697.05 46.49 L698.09 47.97 L698.45 49.9 Z M715.28 86.4 L717.89 86.22 L719.64 85.72 L720.67 84.74 L720.99 83.25 L720.63 81.81 L719.55 80.6 L717.61 79.47 L714.73 78.3 L711 76.72 L709.38 75.82 L708.03 74.75 L706.95 73.53 L706.09 72.04 L705.55 70.29 L705.38 68.17 L705.6 66.06 L706.18 64.21 L707.22 62.55 L708.66 61.15 L710.46 60.03 L712.53 59.22 L714.91 58.77 L717.57 58.59 L723.06 59.13 L725.31 59.62 L726.93 60.12 L725.58 66.19 L724.18 65.65 L722.43 65.21 L717.97 64.71 L715.9 64.89 L714.24 65.47 L713.16 66.46 L712.8 67.86 L713.07 69.3 L714.06 70.47 L715.86 71.5 L718.56 72.58 L721.03 73.57 L723.1 74.57 L724.82 75.6 L726.16 76.72 L727.2 78.03 L727.92 79.47 L728.37 81.18 L728.51 83.21 L728.28 85.41 L727.65 87.3 L726.57 88.92 L725.04 90.22 L723.15 91.26 L720.9 92.03 L718.24 92.47 L715.23 92.61 L711.4 92.43 L708.34 91.89 L706.14 91.26 L704.7 90.76 L706.01 84.51 L707.8 85.18 L710.01 85.82 L712.48 86.26 L715.28 86.4 Z M733.72 75.74 L734.04 71.73 L734.98 68.26 L736.47 65.29 L738.36 62.91 L740.61 61.02 L743.17 59.67 L745.97 58.86 L748.76 58.59 L751.95 58.86 L754.74 59.62 L757.17 60.93 L759.24 62.73 L760.86 65.07 L762.03 67.95 L762.75 71.28 L762.97 75.15 L762.93 76.54 L762.84 77.94 L741.47 77.94 L741.73 79.78 L742.32 81.4 L744.21 83.97 L745.56 84.92 L747.22 85.59 L749.11 86 L751.32 86.13 L756.32 85.64 L758.34 85.1 L759.87 84.56 L760.86 90.68 L759.15 91.35 L756.67 91.98 L753.66 92.43 L750.38 92.61 L746.41 92.29 L742.95 91.35 L740.07 89.82 L737.73 87.79 L735.97 85.36 L734.72 82.49 L733.95 79.25 L733.72 75.74 Z M755.46 72.4 L755.05 69.48 L753.75 67.05 L751.72 65.43 L750.42 64.98 L748.84 64.85 L747.22 65.03 L745.78 65.47 L743.58 67.18 L742.18 69.61 L741.51 72.4 Z" fill="url(#type)"/>
    <path d="M476.82 149.8 L478.04 149.85 L480.06 149.9 L482.58 149.71 L484.74 149.22 L486.54 148.37 L488.02 147.19 L489.2 145.66 L490.01 143.91 L490.5 141.88 L490.68 139.59 L490.5 137.25 L490.05 135.22 L489.24 133.47 L488.11 131.99 L486.68 130.82 L484.83 130.01 L482.67 129.51 L480.15 129.33 L478.12 129.38 L476.82 129.46 Z M496.21 139.59 L495.9 143.15 L495.05 146.16 L493.61 148.72 L491.67 150.84 L489.29 152.46 L486.49 153.58 L483.3 154.26 L479.74 154.49 L475.74 154.35 L471.51 153.76 L471.51 125.51 L475.79 124.88 L479.83 124.79 L483.3 125.01 L486.49 125.64 L489.29 126.72 L491.67 128.34 L493.61 130.41 L495.05 132.93 L495.9 135.99 L496.21 139.59 Z M508.95 150.62 L511.02 150.57 L512.55 150.35 L512.55 144.72 L511.33 144.45 L509.54 144.36 L507.87 144.45 L506.3 144.94 L505.17 145.89 L504.77 147.42 L505.04 148.95 L505.89 149.9 L507.24 150.43 L508.95 150.62 Z M508.55 131.67 L510.89 131.8 L512.77 132.3 L514.35 133.07 L515.52 134.05 L516.42 135.32 L517.01 136.8 L517.46 140.35 L517.46 153.68 L515.97 153.94 L513.9 154.26 L511.38 154.53 L508.55 154.62 L504.95 154.26 L503.42 153.76 L502.15 153.04 L501.12 152.05 L500.36 150.84 L499.86 149.35 L499.68 147.55 L499.86 145.8 L500.4 144.36 L501.3 143.15 L502.43 142.2 L505.35 141.03 L508.82 140.67 L510.57 140.8 L512.55 141.16 L512.55 140.31 L512.33 138.65 L511.61 137.21 L510.21 136.26 L508.05 135.94 L504.81 136.21 L503.46 136.49 L502.43 136.8 L501.8 132.66 L502.96 132.35 L504.58 131.99 L508.55 131.67 Z M523.44 126.4 L528.52 125.55 L528.52 132.21 L536.31 132.21 L536.31 136.44 L528.52 136.44 L528.52 145.4 L528.75 147.65 L529.33 149.18 L530.51 150.03 L532.21 150.3 L534.65 150.03 L536.35 149.44 L537.21 153.49 L536.17 153.9 L534.87 154.26 L531.54 154.66 L529.38 154.53 L527.58 154.04 L526.18 153.27 L525.1 152.24 L524.34 150.88 L523.8 149.31 L523.44 145.44 Z M548.96 150.62 L551.02 150.57 L552.51 150.35 L552.51 144.72 L551.29 144.45 L549.54 144.36 L547.83 144.45 L546.3 144.94 L545.17 145.89 L544.77 147.42 L545.04 148.95 L545.9 149.9 L547.24 150.43 L548.96 150.62 Z M548.55 131.67 L550.84 131.8 L552.78 132.3 L554.31 133.07 L555.52 134.05 L557.01 136.8 L557.46 140.35 L557.46 153.68 L555.97 153.94 L553.9 154.26 L551.39 154.53 L548.55 154.62 L544.9 154.26 L542.11 153.04 L540.32 150.84 L539.86 149.35 L539.68 147.55 L539.86 145.8 L540.4 144.36 L541.26 143.15 L542.39 142.2 L545.31 141.03 L548.77 140.67 L550.53 140.8 L552.51 141.16 L552.51 140.31 L552.33 138.65 L551.57 137.21 L550.21 136.26 L548.01 135.94 L544.82 136.21 L542.39 136.8 L541.76 132.66 L542.97 132.35 L544.59 131.99 L548.55 131.67 Z M581.94 124.79 L584.91 124.92 L587.57 125.37 L589.77 126.09 L591.66 127.08 L593.15 128.38 L594.18 130.05 L594.81 132.03 L595.03 134.32 L594.81 136.66 L594.14 138.69 L593.05 140.35 L591.52 141.66 L589.59 142.65 L587.29 143.37 L584.68 143.77 L581.62 143.91 L578.97 143.91 L578.97 154.17 L573.71 154.17 L573.71 125.51 L577.8 124.92 L581.94 124.79 Z M582.3 129.33 L580.46 129.38 L578.97 129.46 L578.97 139.37 L581.53 139.37 L584.96 139.14 L587.43 138.33 L589.01 136.8 L589.5 134.28 L589.36 132.93 L588.96 131.85 L587.43 130.36 L585.14 129.6 L582.3 129.33 Z M607.27 154.57 L605.21 154.44 L603.49 154.08 L602.15 153.49 L601.11 152.77 L599.9 150.62 L599.53 147.69 L599.53 122.4 L604.62 121.59 L604.62 146.74 L604.76 148.27 L605.29 149.35 L606.33 150.03 L607.95 150.39 Z M619.83 150.62 L621.9 150.57 L623.39 150.35 L623.39 144.72 L622.17 144.45 L620.41 144.36 L618.71 144.45 L617.13 144.94 L616.05 145.89 L615.6 147.42 L615.91 148.95 L616.72 149.9 L618.08 150.43 L619.83 150.62 Z M619.38 131.67 L621.72 131.8 L623.61 132.3 L625.18 133.07 L626.4 134.05 L627.26 135.32 L627.84 136.8 L628.29 140.35 L628.29 153.68 L626.8 153.94 L624.73 154.26 L622.21 154.53 L619.38 154.62 L615.78 154.26 L612.99 153.04 L611.96 152.05 L611.19 150.84 L610.7 149.35 L610.52 147.55 L610.7 145.8 L611.28 144.36 L612.14 143.15 L613.26 142.2 L616.18 141.03 L619.65 140.67 L621.4 140.8 L623.39 141.16 L623.39 140.31 L623.16 138.65 L622.44 137.21 L621.04 136.26 L618.89 135.94 L615.65 136.21 L614.34 136.49 L613.26 136.8 L612.63 132.66 L613.8 132.35 L615.42 131.99 L619.38 131.67 Z M634.28 126.4 L639.36 125.55 L639.36 132.21 L647.15 132.21 L647.15 136.44 L639.36 136.44 L639.36 145.4 L639.59 147.65 L640.17 149.18 L641.34 150.03 L643.05 150.3 L645.48 150.03 L647.19 149.44 L648.04 153.49 L645.75 154.26 L644.17 154.57 L642.38 154.66 L640.21 154.53 L638.46 154.04 L637.02 153.27 L635.94 152.24 L635.17 150.88 L634.64 149.31 L634.28 145.44 Z M661.01 121.59 L664.11 121.9 L665.28 122.18 L666.14 122.44 L665.19 126.68 L663.53 126.14 L661.5 125.91 L659.43 126.27 L658.08 127.26 L657.36 128.79 L657.14 130.72 L657.14 132.21 L665.15 132.21 L665.15 136.44 L657.14 136.44 L657.14 154.17 L652.05 154.17 L652.05 130.63 L652.18 128.61 L652.64 126.86 L653.31 125.28 L654.3 123.97 L655.56 122.94 L657.09 122.18 L658.93 121.72 L661.01 121.59 Z M688.32 143.15 L688.14 145.66 L687.55 147.91 L686.65 149.9 L685.44 151.56 L683.91 152.91 L682.07 153.9 L680.04 154.53 L677.79 154.76 L675.54 154.53 L673.52 153.9 L671.71 152.91 L670.18 151.56 L668.92 149.9 L668.03 147.91 L667.44 145.66 L667.26 143.15 L667.44 140.67 L668.03 138.42 L668.97 136.49 L670.18 134.82 L671.76 133.47 L673.56 132.48 L675.59 131.9 L677.79 131.67 L679.99 131.9 L682.07 132.48 L683.86 133.47 L685.4 134.82 L686.61 136.49 L687.55 138.42 L688.14 140.67 L688.32 143.15 Z M683.1 143.15 L682.74 140.22 L681.71 137.97 L680.04 136.57 L677.79 136.08 L675.54 136.57 L673.88 137.97 L672.79 140.22 L672.43 143.15 L672.79 146.16 L673.88 148.41 L675.54 149.85 L677.79 150.35 L680.04 149.85 L681.71 148.41 L682.74 146.16 L683.1 143.15 Z M706.09 136.8 L704.34 136.35 L701.78 136.12 L699.97 136.26 L699.16 136.44 L698.67 136.57 L698.67 154.17 L693.59 154.17 L693.59 133.24 L695.25 132.71 L697.28 132.21 L702.14 131.76 L703.3 131.8 L704.65 131.99 L705.96 132.21 L706.99 132.48 Z M723.02 142.6 L722.79 139.63 L722.16 137.65 L720.9 136.49 L718.92 136.12 L717.08 136.21 L715.59 136.44 L715.59 154.17 L710.51 154.17 L710.51 132.93 L712.22 132.52 L714.33 132.12 L719.37 131.76 L721.44 131.9 L723.06 132.35 L725.49 133.88 L726.66 133.15 L728.28 132.48 L730.12 131.94 L732.15 131.76 L734.45 131.94 L736.34 132.48 L737.82 133.38 L738.95 134.55 L739.76 135.99 L740.25 137.74 L740.61 141.84 L740.61 154.17 L735.53 154.17 L735.53 142.6 L735.3 139.63 L734.67 137.65 L733.46 136.49 L731.47 136.12 L729.14 136.53 L727.52 137.29 L727.97 139.5 L728.1 142.02 L728.1 154.17 L723.02 154.17 Z" fill="#57bdf7"/>
  </g>
</svg>

