<svg xmlns="http://www.w3.org/2000/svg" viewBox="0 0 520 164" role="img" aria-labelledby="title desc">
  <title id="title">Enterprise Data Platform data-flow mark</title>
  <desc id="desc">Four layered data-flow lines ending in modular data nodes.</desc>
  <defs>
    <linearGradient id="a" x1="0" x2="520" y1="30" y2="30" gradientUnits="userSpaceOnUse">
      <stop offset="0" stop-color="#0b57c7"/>
      <stop offset=".62" stop-color="#1479e6"/>
      <stop offset="1" stop-color="#28d7ec"/>
    </linearGradient>
    <linearGradient id="b" x1="0" x2="520" y1="66" y2="66" gradientUnits="userSpaceOnUse">
      <stop offset="0" stop-color="#164ca8"/>
      <stop offset=".62" stop-color="#2f7de1"/>
      <stop offset="1" stop-color="#43c7f4"/>
    </linearGradient>
    <linearGradient id="c" x1="0" x2="520" y1="102" y2="102" gradientUnits="userSpaceOnUse">
      <stop offset="0" stop-color="#486a99"/>
      <stop offset=".62" stop-color="#548bd0"/>
      <stop offset="1" stop-color="#8ab4f8"/>
    </linearGradient>
    <linearGradient id="d" x1="0" x2="520" y1="138" y2="138" gradientUnits="userSpaceOnUse">
      <stop offset="0" stop-color="#56606b"/>
      <stop offset=".62" stop-color="#8e9aa8"/>
      <stop offset="1" stop-color="#cad4df"/>
    </linearGradient>
  </defs>
  <path d="M0 6h243c8.8 0 16.6 2.7 23.6 8l42.2 32c6.9 5.3 14.8 8 23.5 8H482v24H323.8c-11.6 0-22.1-3.5-31.4-10.6L249.9 35.2a27.8 27.8 0 0 0-16.7-5.6H0Z" fill="url(#a)"/>
  <path d="M0 47h243c8.8 0 16.6 2.7 23.6 8l42.2 32c6.9 5.3 14.8 8 23.5 8H482v24H323.8c-11.6 0-22.1-3.5-31.4-10.6L249.9 76.2a27.8 27.8 0 0 0-16.7-5.6H0Z" fill="url(#b)"/>
  <path d="M0 88h243c8.8 0 16.6 2.7 23.6 8l42.2 32c6.9 5.3 14.8 8 23.5 8H482v24H323.8c-11.6 0-22.1-3.5-31.4-10.6l-42.5-32.2a27.8 27.8 0 0 0-16.7-5.6H0Z" fill="url(#c)"/>
  <path d="M0 129h243c8.8 0 16.6-2.7 23.6-8l42.2-32c6.9-5.3 14.8-8 23.5-8H482v24H323.8c-5.8 0-11 1.8-15.7 5.4l-42.5 32.2c-9.3 7.1-19.8 10.6-31.4 10.6H0Z" fill="url(#d)"/>
  <g fill="#26cef3">
    <rect x="501" y="21" width="18" height="18" rx="3"/>
    <rect x="501" y="62" width="18" height="18" rx="3"/>
    <rect x="501" y="103" width="18" height="18" rx="3"/>
  </g>
  <g fill="#80aee9">
    <rect x="501" y="144" width="18" height="18" rx="3"/>
  </g>
</svg>
